<?xml version='1.0' encoding='utf-8'?>
<svg xmlns="http://www.w3.org/2000/svg" viewBox="0 0 220 140" role="img" aria-labelledby="t d">
    <title id="t">C-Führungsrahmen</title>
    <desc id="d">C-Form nach Referenz mit Bemaßung a, b, c, d, f, g</desc>
    <defs>
        <marker id="arrowStart" markerWidth="8" markerHeight="8" refX="1.6" refY="4" orient="auto"
                markerUnits="strokeWidth">
            <path d="M6.8 0 L0 4 L6.8 8 z" fill="#dc2626"/>
        </marker>
        <marker id="arrowEnd" markerWidth="8" markerHeight="8" refX="6.8" refY="4" orient="auto"
                markerUnits="strokeWidth">
            <path d="M0 0 L6.8 4 L0 8 z" fill="#dc2626"/>
        </marker>
    </defs>
    <rect class="base" x="1" y="1" width="218" height="138" rx="14" fill="none" stroke="#e2e8f0" stroke-width="1.2"/>
    <path d="M 26 46 L 194 46 L 194 110 L 150 110 L 150 86 L 170 86 L 170 70 L 54 70 L 54 86 L 74 86 L 74 110 L 26 110 Z"
          fill="#8a8a8a" stroke="#111111" stroke-width="0.8"/>
    <line x1="26" y1="20" x2="194" y2="20" stroke="#dc2626" stroke-width="0.8" marker-start="url(#arrowStart)"
          marker-end="url(#arrowEnd)"/>
    <text x="110.0" y="16" text-anchor="middle" font-size="14" font-family="Arial, Helvetica, sans-serif"
          fill="#dc2626">A
    </text>
    <line x1="26" y1="46" x2="26" y2="20" stroke="#dc2626" stroke-width="0.7"/>
    <line x1="194" y1="46" x2="194" y2="20" stroke="#dc2626" stroke-width="0.7"/>
    <line x1="14" y1="46" x2="14" y2="110" stroke="#dc2626" stroke-width="0.8" marker-start="url(#arrowStart)"
          marker-end="url(#arrowEnd)"/>
    <text x="8" y="80.0" text-anchor="middle" font-size="14" font-family="Arial, Helvetica, sans-serif" fill="#dc2626">
        C
    </text>
    <line x1="26" y1="46" x2="14" y2="46" stroke="#dc2626" stroke-width="0.7"/>
    <line x1="26" y1="110" x2="14" y2="110" stroke="#dc2626" stroke-width="0.7"/>
    <line x1="208" y1="46" x2="208" y2="110" stroke="#dc2626" stroke-width="0.8" marker-start="url(#arrowStart)"
          marker-end="url(#arrowEnd)"/>
    <text x="213" y="80.0" text-anchor="middle" font-size="14" font-family="Arial, Helvetica, sans-serif"
          fill="#dc2626">D
    </text>
    <line x1="194" y1="46" x2="208" y2="46" stroke="#dc2626" stroke-width="0.7"/>
    <line x1="194" y1="110" x2="208" y2="110" stroke="#dc2626" stroke-width="0.7"/>
    <line x1="88" y1="86" x2="88" y2="110" stroke="#dc2626" stroke-width="0.8" marker-start="url(#arrowStart)"
          marker-end="url(#arrowEnd)"/>
    <text x="95" y="100.0" text-anchor="middle" font-size="14" font-family="Arial, Helvetica, sans-serif"
          fill="#dc2626">B
    </text>
    <line x1="74" y1="86" x2="88" y2="86" stroke="#dc2626" stroke-width="0.7"/>
    <line x1="74" y1="110" x2="88" y2="110" stroke="#dc2626" stroke-width="0.7"/>
    <line x1="26" y1="124" x2="74" y2="124" stroke="#dc2626" stroke-width="0.8" marker-start="url(#arrowStart)"
          marker-end="url(#arrowEnd)"/>
    <text x="50.0" y="140" text-anchor="middle" font-size="14" font-family="Arial, Helvetica, sans-serif"
          fill="#dc2626">E
    </text>
    <line x1="26" y1="110" x2="26" y2="124" stroke="#dc2626" stroke-width="0.7"/>
    <line x1="74" y1="110" x2="74" y2="124" stroke="#dc2626" stroke-width="0.7"/>
    <line x1="150" y1="124" x2="194" y2="124" stroke="#dc2626" stroke-width="0.8" marker-start="url(#arrowStart)"
          marker-end="url(#arrowEnd)"/>
    <text x="172.0" y="140" text-anchor="middle" font-size="14" font-family="Arial, Helvetica, sans-serif"
          fill="#dc2626">F
    </text>
    <line x1="150" y1="110" x2="150" y2="124" stroke="#dc2626" stroke-width="0.7"/>
    <line x1="194" y1="110" x2="194" y2="124" stroke="#dc2626" stroke-width="0.7"/>
</svg>