<?xml version='1.0' encoding='utf-8'?>
<svg xmlns="http://www.w3.org/2000/svg" viewBox="0 0 220 140" width="220" height="140" role="img" aria-labelledby="t d"><title id="t">Kastenbalg</title><desc id="d">Kastenbalg</desc><defs><marker id="arrowStart" markerWidth="8" markerHeight="8" refX="1.6" refY="4" orient="auto" markerUnits="strokeWidth"><path d="M6.8 0 L0 4 L6.8 8 z" fill="#dc2626" /></marker><marker id="arrowEnd" markerWidth="8" markerHeight="8" refX="6.8" refY="4" orient="auto" markerUnits="strokeWidth"><path d="M0 0 L6.8 4 L0 8 z" fill="#dc2626" /></marker></defs><rect class="base" x="1" y="1" width="218" height="138" rx="14" fill="none" stroke="#e2e8f0" stroke-width="1.2" /><path d="M 24 42 L 196 42 L 196 110 L 24 110 Z M 50 66 L 170 66 L 170 86 L 50 86 Z" fill="#8a8a8a" stroke="#111111" stroke-width="0.8" fill-rule="evenodd" /><line x1="24" y1="18" x2="196" y2="18" stroke="#dc2626" stroke-width="0.8" marker-start="url(#arrowStart)" marker-end="url(#arrowEnd)" /><text x="110.0" y="14" text-anchor="middle" font-size="14" font-family="Arial, Helvetica, sans-serif" fill="#dc2626">a</text><line x1="24" y1="42" x2="24" y2="18" stroke="#dc2626" stroke-width="0.7" /><line x1="196" y1="42" x2="196" y2="18" stroke="#dc2626" stroke-width="0.7" /><line x1="10" y1="42" x2="10" y2="110" stroke="#dc2626" stroke-width="0.8" marker-start="url(#arrowStart)" marker-end="url(#arrowEnd)" /><text x="6" y="78.0" text-anchor="middle" font-size="14" font-family="Arial, Helvetica, sans-serif" fill="#dc2626">b</text><line x1="24" y1="42" x2="10" y2="42" stroke="#dc2626" stroke-width="0.7" /><line x1="24" y1="110" x2="10" y2="110" stroke="#dc2626" stroke-width="0.7" /><line x1="24" y1="124" x2="50" y2="124" stroke="#dc2626" stroke-width="0.8" marker-start="url(#arrowStart)" marker-end="url(#arrowEnd)" /><text x="37.0" y="120" text-anchor="middle" font-size="14" font-family="Arial, Helvetica, sans-serif" fill="#dc2626">f</text><line x1="24" y1="110" x2="24" y2="124" stroke="#dc2626" stroke-width="0.7" /><line x1="50" y1="110" x2="50" y2="124" stroke="#dc2626" stroke-width="0.7" /></svg>