<svg xmlns="http://www.w3.org/2000/svg" viewBox="0 0 220 140" role="img" aria-labelledby="t d">
  <title id="t">Kastenbalg</title>
  <desc id="d">Technische Skizze Kastenbalg</desc>
  <defs>
    <marker id="arrow" markerWidth="8" markerHeight="8" refX="4" refY="4" orient="auto-start-reverse">
      <path d="M0,0 L8,4 L0,8 z" fill="#d8232a"/>
    </marker>
    <style>
      .outline { fill: none; stroke: #1f2937; stroke-width: 4; stroke-linecap: round; stroke-linejoin: round; }
      .fold { fill: none; stroke: #334155; stroke-width: 2.6; stroke-linecap: round; stroke-linejoin: round; }
      .dim { fill: none; stroke: #d8232a; stroke-width: 2.2; stroke-linecap: round; stroke-linejoin: round; marker-start: url(#arrow); marker-end: url(#arrow); }
      .ext { fill: none; stroke: #94a3b8; stroke-width: 1.6; stroke-dasharray: 4 4; }
      .txt { fill: #d8232a; font: 700 12px Arial, Helvetica, sans-serif; }
      .base { fill: #ffffff; stroke: #e2e8f0; stroke-width: 1.2; }
    </style>
  </defs>
  <rect class="base" x="1" y="1" width="218" height="138" rx="14"/>

  <rect class="outline" x="56" y="48" width="78" height="48" rx="2"/>
  <path class="outline" d="M134 48 L162 30 V78 L134 96"/>
  <path class="outline" d="M56 48 L84 30 H162"/>
  <path class="fold" d="M68 74 l8 -14 l8 14 l8 -14 l8 14 l8 -14 l8 14"/>
  <line class="dim" x1="56" y1="110" x2="134" y2="110"/>
  <text class="txt" x="95" y="125" text-anchor="middle">A</text>
  <line class="dim" x1="42" y1="48" x2="42" y2="96"/>
  <text class="txt" x="35" y="74">B</text>
  <line class="dim" x1="174" y1="30" x2="174" y2="78"/>
  <text class="txt" x="181" y="57">C</text>
  <line class="dim" x1="84" y1="18" x2="162" y2="18"/>
  <text class="txt" x="123" y="13" text-anchor="middle">D</text>

</svg>